<?xml version="1.0" standalone="no"?>
<!DOCTYPE svg PUBLIC "-//W3C//DTD SVG 20010904//EN"
 "https://www.w3.org/TR/2001/REC-SVG-20010904/DTD/svg10.dtd">
<svg version="1.0" xmlns="https://www.w3.org/2000/svg"
 width="16.000000pt" height="16.000000pt" viewBox="0 0 16.000000 16.000000"
 preserveAspectRatio="xMidYMid meet">
<metadata>
Created by potrace 1.11, written by Peter Selinger 2001-2013
</metadata>
<g transform="translate(0.000000,16.000000) scale(0.002667,-0.002667)"
fill="#000000" stroke="none">
<path d="M0 3000 l0 -3000 3000 0 3000 0 0 3000 0 3000 -3000 0 -3000 0 0
-3000z m2118 2114 c301 -54 576 -256 804 -594 39 -58 74 -105 78 -105 4 0 39
47 78 105 170 251 386 446 590 530 63 27 76 29 92 18 13 -9 1442 -1303 1638
-1483 30 -27 -61 -304 -169 -516 -230 -451 -629 -892 -1384 -1530 -291 -247
-825 -669 -845 -669 -20 0 -547 416 -845 669 -778 658 -1174 1101 -1400 1565
-130 268 -174 428 -182 672 -8 232 22 386 113 582 116 251 384 532 629 659
210 108 525 146 803 97z"/>
<path d="M3691 4810 c-19 -34 -17 -203 4 -315 83 -443 451 -869 863 -999 221
-69 622 -71 622 -3 0 12 -35 15 -192 20 -392 12 -588 96 -869 377 -258 257
-383 520 -408 855 -6 84 -7 88 -20 65z"/>
</g>
</svg>
